# xmcd CD database file
#
# Track frame offsets:
#	150
#	22593
#	51640
#	83380
#	89013
#	111045
#	143868
#	148908
#	165995
#	194998
#	200330
#	230723
#	261078
#
# Disc length: 3803 seconds
#
# Revision: 0
# Processed by: cddbd v1.5PL3 Copyright (c) Steve Scherf et al.
# Submitted via: CDex 1.60beta1
#
DISCID=b80ed90d
DTITLE=Kenny Davern and Dick Wellstood - Kenny Davern and Dick Wellstood
DYEAR=1984
DGENRE=Jazz
TTITLE0=Oh, Lady Be Good
TTITLE1=Trav'lin' All Alone
TTITLE2=Don't Get Around Much Anymore
TTITLE3=Wellstood Remarks
TTITLE4=If Dreams Come True
TTITLE5=Please Don't Talk About Me When I'm Gone
TTITLE6=Davern Remarks
TTITLE7=Mood Indigo
TTITLE8=On the Sunny Side of the Street
TTITLE9=Wellstood Remarks
TTITLE10=The Mooche/Birmingham Breakdown
TTITLE11=Summertime
TTITLE12=Rosetta
EXTD=YEAR: 1984
EXTT0=
EXTT1=
EXTT2=
EXTT3=
EXTT4=
EXTT5=
EXTT6=
EXTT7=
EXTT8=
EXTT9=
EXTT10=
EXTT11=
EXTT12=
PLAYORDER=
